<?xml version="1.0" standalone="no"?>
<!DOCTYPE svg PUBLIC "-//W3C//DTD SVG 20010904//EN"
 "http://www.w3.org/TR/2001/REC-SVG-20010904/DTD/svg10.dtd">
<svg version="1.0" xmlns="http://www.w3.org/2000/svg"
 width="350.000000pt" height="350.000000pt" viewBox="0 0 350.000000 350.000000"
 preserveAspectRatio="xMidYMid meet">
<metadata>
Created by potrace 1.14, written by Peter Selinger 2001-2017
</metadata>
<g transform="translate(0.000000,350.000000) scale(0.100000,-0.100000)"
fill="#000000" stroke="none">
<path d="M180 3025 c0 -3 96 -161 214 -352 l215 -346 -23 -46 c-65 -129 -106
-302 -113 -482 -10 -217 30 -406 127 -604 275 -566 892 -843 1505 -676 103 29
301 125 390 190 384 282 586 748 524 1208 -14 108 -55 255 -94 339 l-33 72
214 346 c118 190 214 348 214 351 0 3 -706 5 -1570 5 -863 0 -1570 -2 -1570
-5z m768 -277 c-29 -23 -85 -75 -125 -116 l-71 -74 -15 24 c-18 28 -110 178
-121 196 -6 9 35 12 189 12 l197 0 -54 -42z m1936 30 c-10 -18 -103 -168 -121
-196 -14 -23 -14 -23 -86 50 -40 41 -96 93 -125 116 l-54 42 197 0 c154 0 195
-3 189 -12z m-1254 -820 l0 -821 -370 598 -369 598 27 36 c85 115 222 231 353
300 102 52 265 105 342 110 16 1 17 -44 17 -821z m430 780 c52 -17 118 -42
145 -55 132 -66 275 -183 361 -294 l43 -57 -296 -478 c-162 -264 -329 -533
-369 -598 l-74 -120 0 823 0 822 48 -7 c26 -3 90 -20 142 -36z m-905 -1298
c202 -327 385 -622 405 -656 l38 -61 -47 9 c-75 14 -201 58 -279 99 -354 185
-573 559 -557 954 4 100 15 174 37 246 10 35 13 37 23 21 7 -9 178 -285 380
-612z m1612 515 c19 -86 21 -303 4 -395 -71 -369 -341 -677 -696 -794 -44 -14
-101 -30 -127 -34 l-46 -9 56 92 c755 1223 776 1256 785 1233 4 -13 15 -54 24
-93z"/>
</g>
</svg>
